<svg id="Layer_1" enable-background="new 0 0 512.011 512.011" height="512" viewBox="0 0 512.011 512.011" width="512" xmlns="http://www.w3.org/2000/svg"><g><path d="m505.632 166.399c-9.048-19.358-25.094-34.035-45.18-41.325-17.502-6.353-36.245-6.43-53.584-.36-16.997-19.483-37.8-35.72-60.799-47.336-28.081-14.182-58.375-21.373-90.042-21.373-20.778 0-41.257 3.176-60.868 9.438-8.417 2.688-13.062 11.692-10.374 20.109s11.693 13.062 20.109 10.374c16.459-5.257 33.662-7.922 51.132-7.922 47.223 0 91.164 19.299 122.882 53.444-9.314 8.569-16.51 19.295-20.952 31.533-7.291 20.087-6.322 41.81 2.727 61.169 13.769 29.456 70.981 61.713 94.94 74.214 4.667 2.436 9.724 3.657 14.791 3.657 4.606 0 9.221-1.011 13.557-3.037 9.104-4.255 15.558-12.327 17.706-22.146 5.776-26.398 17.723-90.982 3.955-120.439zm-35.205 113.596c-41.264-21.531-74.471-45.955-80.753-59.395-5.429-11.615-6.01-24.649-1.636-36.701 2.325-6.405 5.912-12.116 10.497-16.886 7.415 11.84 13.305 24.515 17.559 37.853 2.169 6.802 8.462 11.143 15.24 11.143 1.611 0 3.249-.245 4.866-.761 8.418-2.685 13.067-11.687 10.382-20.105-4.761-14.928-11.234-29.159-19.318-42.516 7.432-.928 15.029-.102 22.271 2.527 12.052 4.374 21.679 13.18 27.108 24.794 6.281 13.441 3.721 54.584-6.216 100.047z"/><path d="m411.765 355.317c-7.009-5.384-17.052-4.066-22.436 2.941-32.097 41.783-80.683 65.747-133.302 65.747-71.991 0-136.171-46.893-159.056-113.817 3.489-.763 6.951-1.759 10.365-2.998 20.087-7.291 36.132-21.967 45.18-41.325 13.769-29.457 1.821-94.04-3.955-120.44-2.148-9.819-8.601-17.891-17.705-22.146-9.104-4.256-19.437-4.029-28.348.62-23.959 12.501-81.171 44.758-94.94 74.215-9.049 19.358-10.017 41.082-2.727 61.168s21.966 36.132 41.325 45.181c5.613 2.623 11.425 4.561 17.337 5.822 11.125 39.419 34.434 74.962 66.464 100.996 35.484 28.84 80.252 44.724 126.059 44.724 31.604 0 61.846-7.165 89.885-21.294 26.727-13.468 50.515-33.164 68.793-56.958 5.385-7.008 4.068-17.053-2.939-22.436zm-376.843-106.951c-4.374-12.052-3.793-25.086 1.636-36.701 6.282-13.44 39.489-37.864 80.743-59.4 9.948 45.469 12.508 86.611 6.226 100.051-5.429 11.615-15.056 20.421-27.108 24.795-2.245.815-4.524 1.456-6.821 1.928-1.042-7.61-1.57-15.315-1.57-23.033 0-7.315.477-14.697 1.417-21.941 1.137-8.763-5.045-16.789-13.808-17.926-8.764-1.138-16.789 5.044-17.926 13.808-1.117 8.604-1.683 17.372-1.683 26.059 0 6.013.284 12.019.819 17.995-10.191-5.608-17.92-14.6-21.925-25.635z"/></g></svg>