<svg id="Layer_1" data-name="Layer 1" xmlns="http://www.w3.org/2000/svg" viewBox="0 0 2000 2000"><defs><style>.cls-1,.cls-3{stroke:#000;stroke-miterlimit:10;}.cls-1{stroke-width:20px;}.cls-2{fill:#8dc741;}.cls-3{fill:none;stroke-linecap:round;stroke-width:60px;}</style></defs><title>Baterry juice</title><path class="cls-1" d="M1165.69,1849.34H698.84a87.85,87.85,0,0,1-87.66-82.61L506.19,685l0-.32A87.82,87.82,0,0,1,593.85,592h681.69a87.8,87.8,0,0,1,87.65,93.07l0,.65L1253.32,1767.13A87.91,87.91,0,0,1,1165.69,1849.34ZM537.79,682.61l105,1081.7,0,.33a56.15,56.15,0,0,0,56.05,53h466.85a56.2,56.2,0,0,0,56-52.77l0-.65L1331.59,682.86a56.13,56.13,0,0,0-56-59.19H593.85a56.13,56.13,0,0,0-56.06,58.94Z"/><polygon class="cls-2" points="683.06 1452.57 663.35 1233.37 1199.67 1233.37 1178.94 1452.57 683.06 1452.57"/><path d="M1177.69,1253.37l-17,179.2H701.34l-16.11-179.2h492.46m44-40H641.47l23.3,259.2h532.37l24.51-259.2Z"/><path class="cls-2" d="M656.08,1152.5,639.84,971.85c-.69-7.66,3.63-14.75,9.64-15.8l571.87-99.95a8.83,8.83,0,0,1,1.52-.13,10,10,0,0,1,7.11,3.49,16.25,16.25,0,0,1,3.86,12.52l-26.52,280.52Z"/><path d="M1213.2,877.83l-24.08,254.67H674.36l-14.2-158,553-96.65m9.67-41.86a29.08,29.08,0,0,0-5,.43L646,936.35c-16.28,2.84-27.73,19.2-26.11,37.29L637.8,1172.5h587.71l28.24-298.63c2-20.59-12.83-37.9-30.88-37.9Z"/><path class="cls-2" d="M720,1752.79c-5.57,0-10.43-5.6-11.07-12.74l-18.57-206.61h481l-19.54,206.69c-.67,7.1-5.53,12.66-11.06,12.66Z"/><path d="M1149.31,1553.44l-17,179.35h-404l-16.12-179.35h437.1m44-40H668.45L689,1741.84c1.58,17.56,15,31,31,31h420.72c16,0,29.31-13.29,31-30.77l21.61-228.58Z"/><path class="cls-3" d="M1025.11,525.28l99-227.81a124.5,124.5,0,0,1,82.32-70.72L1494,150.66"/></svg>