<svg id="Layer_1" data-name="Layer 1" xmlns="http://www.w3.org/2000/svg" viewBox="0 0 2000 2000"><defs><style>.cls-1{fill:#f5ab32;}.cls-2{fill:#1f647a;}.cls-3{fill:#8dc741;}.cls-4{fill:#ea3e28;}</style></defs><title>LogoFinal</title><path class="cls-1" d="M1243.05,415.78c188.73,198.92,222.14,649.2-.89,729.07-102.78,24.46-117.65,15.28-117.65,15.28s122.83,155.19,355.9,228.62A756.71,756.71,0,0,0,1587.24,1000c0-347.89-233.68-641.2-552.64-731.54C1099.78,290.17,1198.56,363.64,1243.05,415.78Z"/><path class="cls-2" d="M445.14,678C475.25,597.92,575,478.81,723,516.78S922.31,773.91,922.31,773.91l-3.92-528.66A767.77,767.77,0,0,0,827,239.76c-362.28,0-665.34,253.43-741.66,592.66C94.16,827.46,269.37,729.56,445.14,678Z"/><path class="cls-3" d="M591.35,1060.46C554.74,839.05,490.93,759.75,365.13,773c-122.89,13-278.07,80.11-284.82,83.5C69.88,906.74,66.77,946.7,66.77,1000c0,419.87,340.37,760.24,760.23,760.24,240.11,0,454.17-111.35,593.5-285.17C1381.44,1492.78,666.25,1726.94,591.35,1060.46Z"/><path class="cls-4" d="M1456.82,1489.66l307.74,255.73s64.27-45.39,48.69-119.39Z"/><path class="cls-4" d="M1456.82,1441l475.24,122.7s23.37-130.49-138.28-132.44Z"/></svg>