<svg id="Layer_1" data-name="Layer 1" xmlns="http://www.w3.org/2000/svg" viewBox="0 0 2000 2000"><defs><style>.cls-1{fill:#1f281a;}.cls-2{fill:#476533;}</style></defs><title>LogoFinal</title><path class="cls-1" d="M289.38,952a80.49,80.49,0,0,1-22.33,28.84,100.7,100.7,0,0,1-34.2,17.82q-19.87,6.14-44,6.15a196.54,196.54,0,0,1-66.6-11.67,176.09,176.09,0,0,1-59.38-35.84l38.6-46.23a193.68,193.68,0,0,0,41.78,26.3,111.75,111.75,0,0,0,46.87,9.75q20.35,0,31.6-7.42t11.24-20.57v-.85A25.69,25.69,0,0,0,230.58,907q-2.36-4.87-8.94-9.12a94.22,94.22,0,0,0-18.28-8.48q-11.7-4.24-30.41-8.91a370.77,370.77,0,0,1-40.83-12.3q-18.28-6.78-31-16.76A67.7,67.7,0,0,1,81.3,826.65q-7-14.83-7-36.9v-.85q0-20.35,7.58-36.69A83.56,83.56,0,0,1,103.15,724a95.78,95.78,0,0,1,32.71-18.24,131.49,131.49,0,0,1,41.92-6.36q32.66,0,60,9.76a174.36,174.36,0,0,1,50.27,28l-33.93,49.2a216.37,216.37,0,0,0-39-21.42,99.9,99.9,0,0,0-38.17-7.84q-19.1,0-28.63,7.42T138.75,783v.85a26.6,26.6,0,0,0,2.77,12.51q2.76,5.31,10,9.55t19.78,8.06q12.54,3.81,31.68,8.9a306.42,306.42,0,0,1,40.19,13.36q17.66,7.42,29.77,17.82a68,68,0,0,1,18.29,24.39q6.16,14,6.17,33.51v.84Q297.39,934.82,289.38,952Z"/><path class="cls-1" d="M582.21,930.15q-9.12,25-26.08,41.77A106.71,106.71,0,0,1,515,997q-24.18,8.26-53.87,8.27-59.81,0-94.16-33.08t-34.36-98.83V703.64h65.32v168q0,36.48,17,54.93T462,945q30.12,0,47.08-17.81t17-53.45V703.64h65.32V871.19Q591.33,905.12,582.21,930.15Z"/><path class="cls-1" d="M849.22,1000.56,705.43,811.81v188.75H641V703.64h60.23L840.31,886.46V703.64h64.47v296.92Z"/><path class="cls-1" d="M1203.19,954.75a69.21,69.21,0,0,1-22.45,25.45q-14.61,10.17-35.14,15.27a189.53,189.53,0,0,1-45.52,5.09h-141V703.64h137.61q45.72,0,71.76,20.79t26,56v.84a72.92,72.92,0,0,1-3.16,22.49,70.39,70.39,0,0,1-8.43,17.6,67,67,0,0,1-12.22,13.78,81.43,81.43,0,0,1-15,10.18q25.76,9.77,40.53,26.51T1211,918.27v.85Q1211,939.48,1203.19,954.75ZM1130,791.44q0-14.84-11-22.69t-31.81-7.84H1022.7v62.77h60.23q21.63,0,34.35-7.42t12.73-24Zm16.54,118.77q0-14.85-11.45-23.54t-36.9-8.7h-75.5v65.32h77.62q21.63,0,33.93-7.84t12.3-24.39Z"/><path class="cls-1" d="M1251.31,1000.56V703.64h65.32v296.92Z"/><path class="cls-1" d="M1554.16,1000.56l-63.62-95h-51.33v95h-65.32V703.64h135.73q53,0,82.5,25.88t29.48,72.11v.84q0,36.06-17.6,58.75t-46,33.3l72.53,106ZM1555.43,805q0-21.21-13.57-31.81t-37.75-10.61h-64.9v85.26h66.17q24.18,0,37.12-11.45t12.93-30.54Z"/><path class="cls-1" d="M1925.72,910.63a138.34,138.34,0,0,1-32.45,47.09,153.47,153.47,0,0,1-50,31.38q-29.06,11.46-63.84,11.46H1663.59V703.64h115.79q34.78,0,63.84,11.25a150.7,150.7,0,0,1,50,31.17,138.92,138.92,0,0,1,32.45,46.87,147.6,147.6,0,0,1,11.45,58.32v.85A149.05,149.05,0,0,1,1925.72,910.63Zm-56.84-58.53a96.79,96.79,0,0,0-6.57-36.05,84.84,84.84,0,0,0-18.24-28.42,80.74,80.74,0,0,0-28.21-18.45,98,98,0,0,0-36.48-6.58h-50.47v179h50.47a100.89,100.89,0,0,0,36.48-6.36A78.5,78.5,0,0,0,1844.07,917a85.86,85.86,0,0,0,18.24-28q6.57-16.11,6.57-36Z"/><path class="cls-2" d="M131.78,1150.3a27.29,27.29,0,0,0,8.88,11.2q6.43,5.05,17.76,9.2a212.31,212.31,0,0,0,29.1,7.82q35.83,8,52.83,22.08t17,39A56.65,56.65,0,0,1,236.89,1284a67.51,67.51,0,0,1-23,12.26,96.52,96.52,0,0,1-29.4,4.3q-25.72,0-47-8.3t-40.57-25.7l15-17.76q16.84,15.32,34,22.82t39.51,7.5q21.74,0,34.75-10.12t13-26.69a35.65,35.65,0,0,0-2.46-13.65,27.39,27.39,0,0,0-8.59-10.88q-6.15-4.92-17-8.9a218.74,218.74,0,0,0-27.78-7.67,222.41,222.41,0,0,1-32.08-9.2q-13.66-5.21-22.57-12.58a46.19,46.19,0,0,1-13.2-17.17q-4.29-9.83-4.29-23.31a53.42,53.42,0,0,1,5.2-23.62,54.86,54.86,0,0,1,14.7-18.56,71.71,71.71,0,0,1,22.36-12.27,85.78,85.78,0,0,1,28.17-4.45q23.6,0,41.2,6.5a125.05,125.05,0,0,1,34.14,19.53l-14.08,18.69q-15-12.25-30.17-17.77a92.16,92.16,0,0,0-31.7-5.51,60.24,60.24,0,0,0-18.83,2.76,47.73,47.73,0,0,0-14.4,7.37,31.54,31.54,0,0,0-9.18,11,30.37,30.37,0,0,0-3.22,13.8A36.77,36.77,0,0,0,131.78,1150.3Z"/><path class="cls-2" d="M480.35,1297.53H456.16v-192h-72v-22.35H552.33v22.35h-72Z"/><path class="cls-2" d="M843,1297.53l-62.17-83.3H719.59v83.3H695.4V1083.16h92.18a104.14,104.14,0,0,1,32,4.59,72.14,72.14,0,0,1,24.34,13A57.9,57.9,0,0,1,859.55,1121a61.05,61.05,0,0,1,5.52,26.2,63.54,63.54,0,0,1-4.29,24,54.87,54.87,0,0,1-12.1,18.38,68,68,0,0,1-18.53,13,86.24,86.24,0,0,1-23.27,7.35l65.84,87.52Zm-16.58-180.8q-14.43-11.22-40.53-11.22H719.59v87.28h66a75.83,75.83,0,0,0,22.1-3.07,53.74,53.74,0,0,0,17.5-8.76,40.18,40.18,0,0,0,11.52-14,41.41,41.41,0,0,0,4.14-18.75Q840.87,1128,826.44,1116.73Z"/><path class="cls-2" d="M1214,1297.53h-26l-25.11-56.65H1046.12l-25.42,56.65H995.89l97.7-215.91h22.66Zm-109.34-187.42-49,109.33h97.7Z"/><path class="cls-2" d="M1455.94,1082.54h19.91l58.8,179.16,61.25-178.54h25.42l-76.56,215.91h-20.52l-58.8-174-59.11,174h-20.21l-76.57-215.91h26.34l61.25,178.54Z"/><path class="cls-2" d="M1777.57,1150.3a27.29,27.29,0,0,0,8.88,11.2q6.43,5.05,17.76,9.2a211.92,211.92,0,0,0,29.1,7.82q35.82,8,52.82,22.08t17,39a56.6,56.6,0,0,1-20.45,44.48,67.56,67.56,0,0,1-23,12.26,96.43,96.43,0,0,1-29.4,4.3q-25.73,0-47-8.3t-40.58-25.7l15-17.76q16.85,15.32,34,22.82t39.51,7.5q21.75,0,34.76-10.12t13-26.69a35.65,35.65,0,0,0-2.46-13.65,27.33,27.33,0,0,0-8.6-10.88q-6.14-4.92-17-8.9a219.22,219.22,0,0,0-27.78-7.67,222,222,0,0,1-32.08-9.2q-13.68-5.21-22.57-12.58a46,46,0,0,1-13.2-17.17q-4.31-9.83-4.3-23.31a53.43,53.43,0,0,1,5.21-23.62,54.86,54.86,0,0,1,14.7-18.56,71.59,71.59,0,0,1,22.36-12.27,85.78,85.78,0,0,1,28.17-4.45q23.58,0,41.19,6.5a125.1,125.1,0,0,1,34.15,19.53l-14.09,18.69q-15-12.25-30.16-17.77a92.2,92.2,0,0,0-31.7-5.51,60.35,60.35,0,0,0-18.84,2.76,47.67,47.67,0,0,0-14.39,7.37,31.67,31.67,0,0,0-9.19,11,30.49,30.49,0,0,0-3.21,13.8A36.77,36.77,0,0,0,1777.57,1150.3Z"/></svg>