<svg id="Layer_1" data-name="Layer 1" xmlns="http://www.w3.org/2000/svg" viewBox="0 0 2000 2000"><defs><style>.cls-1{fill:#8dc741;}.cls-2{fill:#010101;}</style></defs><title>Baterry juice</title><path class="cls-1" d="M397.09,952.66s-67.41,190,0,338,123.57,209.36,159.31,230.81c12.26-52.08-13.38-171.6-31.66-188.94,15.32-37.78,90.9-149.1,66.39-181.78s-129.7-67.41-136.85-98S397.09,952.66,397.09,952.66Z"/><path class="cls-1" d="M801.51,812.69S703,901.6,707.34,927.13s-18.17,165.44,154.43,166.47c81.7-18.39,131.44-63.32,138.23,116.42s9.62,254.13,104.83,203.24c75.57-64.35,120.51-122.56,99.06-270.64C1239.64,1063,1338.7,1029,1340.74,1000S1285,708.51,1130.36,701.43C955.72,693.42,1077.26,815.7,801.51,812.69Z"/><path class="cls-2" d="M1761.09,397.72c-22.69-71.36-53.44-122.45-54.74-124.6a23.48,23.48,0,0,0-24.83-10.48c-2.44.56-60.51,14.11-127.5,47.57-90.44,45.15-153.62,105.43-182.72,174.29-24.23,57.35-27.71,127.46-10.52,204.91a652.44,652.44,0,0,0-122.69-106.77c-13.71-27.08-49.95-93.76-106.62-163.44-18.67-22.94-54.57,5.85-35.71,29a921.88,921.88,0,0,1,84.9,124.88L971.07,532.24,771.93,260.63A325.39,325.39,0,0,1,830,266.55c61.21,12,121.67,43.16,179.74,92.65,22.75,19.39,52.29-15.91,29.84-35-64.14-54.67-131.68-89.25-200.74-102.78-105.42-20.63-228.38,6.45-355.61,78.35C388.38,353.33,325,412.19,322.32,414.66c-8.49,7.93-9.84,22.33-2.74,31.59,9.3,19.08,44.54,87.9,103.2,162,34.58,43.68,71.05,81.07,108.77,111.79q-16.08,13.49-31.24,28.26A531.94,531.94,0,0,0,672.4,1621.39c27.4,11.09,44.72-31.52,17.3-42.64A485.7,485.7,0,0,1,590.17,1524c3.93-21.8,13.05-100.26-39.06-181.47-7.3-11.36,14.51-56,27.53-82.63,13.44-27.46,27.31-55.86,33.79-82.6,6.89-28.4-.86-52.24-22.38-69-15.8-12.28-36.48-18.64-54.7-24.25-11.84-3.64-25.26-7.76-30.06-11.76-9.87-8.27-26-38.84-39-63.4-14.38-27.23-28.06-53.15-42-69.11,31.45-74.7,82-140.8,145.24-191.37,57.8,39.37,123.77,66.54,193.88,72-81.31,63-107.62,143.46-70,220.75,43.91,90.25,134.28,75.83,214,63.13,13.8-2.21,28.07-4.48,41.74-6.18,5.13-.65,6.67.75,7.71,1.66,17.46,15.53,16.94,89.71,16.57,143.87-.51,74.92-1,145.69,26.91,182,14.24,18.52,34.29,28,57.78,28,14.09,0,29.39-3.39,45.43-10.28,69.4-29.71,141.54-119.16,130.53-189.92-9.61-61.88-16-102.75-1-135.7,13.87-30.5,47.4-58.73,113.44-94.75A485.7,485.7,0,0,1,1358,1133.74c-1.41,129.75-53.27,251.18-146,341.92-103.66,101.4-249.35,151.48-393.47,135.6-29.36-3.19-34.43,42.5-5,45.74,157.75,17.38,317.24-37.46,430.67-148.44,101.55-99.35,158.32-232.28,159.86-374.33,2-188.35-94.59-355.21-241.7-451.33,30.4-21.68,53-40.42,65.6-51.3a612.29,612.29,0,0,1,140.8,141.11c95,132.61,132.7,294.27,106.13,455.23C1420,1560.2,1105,1785.9,772.72,1731c-161-26.58-301.94-114.24-397-246.85S243,1189.86,269.63,1028.91c4.77-29-40.6-36.56-45.39-7.49-28.6,173.08,11.94,346.93,114.1,489.53s253.8,236.86,426.88,265.46a666.15,666.15,0,0,0,108.43,8.92c136,0,268.36-42.24,381.13-123,142.62-102.19,236.9-253.77,265.48-426.85,21-126.83,4.74-254.08-45.61-369.13a662.81,662.81,0,0,0,106.09-41.79c90.42-45.15,153.61-105.43,182.7-174.3S1791.75,494,1761.09,397.72ZM425.63,1030.4c17.12,32.46,33.31,63.14,50.14,77.21,11.91,10,28.5,15.06,46.05,20.46,45,13.82,50.2,20.61,45.88,38.39-5.29,21.87-18.06,48-30.4,73.22-23.76,48.63-46.2,94.53-24.93,127.7a218.79,218.79,0,0,1,34.82,122.08c-137.05-123.58-192.85-318.77-141.81-496.18C412.15,1004.88,419.26,1018.36,425.63,1030.4ZM1538.87,578.23l-65.39-158.47c31.82-29.75,68.73-52.15,100.18-67.92a615,615,0,0,1,72.7-30.61Zm149.91-239.16a617.43,617.43,0,0,1,28.78,73.57c9.92,31.41,19,70.33,20.84,110.93l-153.24,63.22Zm-275.1,163.35a219.12,219.12,0,0,1,25.69-44.66l74.44,180.37L1447,797.86a611.32,611.32,0,0,1-29.81-75.77C1398.38,662.6,1382.5,576.19,1413.68,502.42Zm147.41,280.46a611.38,611.38,0,0,1-70.41,29.81L1560,647l176.45-72.81a222,222,0,0,1-15.39,58.15C1689.9,706.08,1616.86,754.92,1561.09,782.88ZM731.4,769.79c-8.13-1.59-16.15-3.54-24.06-5.75L962,577.37l209.68,40.86C1095.3,678.42,909.41,804.66,731.4,769.79Zm-232.73-144c-54.46-58.7-94.38-121.46-117.3-161.65l266.84,52Zm47.13-307L657.44,471.12,388.88,418.77C422.69,392.07,478.5,352,545.8,318.84ZM724,484.1,588.66,299.47c40.52-16.65,84-29.75,128.6-35.58L904.51,519.27Zm-14.32,44.09,190.84,37.19L655.6,744.91c-46.19-21.33-87.75-52-124.12-86.09ZM1334,977.51c-83,44.19-123.57,78.91-142.84,121.25-20.69,45.47-13.11,94.27-2.61,161.82,6.2,39.83-41.14,114-103.17,140.57-23,9.83-39.29,8.67-48.6-3.46-18.28-23.8-17.78-95.81-17.39-153.66.55-80,1-149.18-32-178.56-11.88-10.57-27.07-15-43.95-13-14.47,1.8-29.15,4.14-43.33,6.4-84.58,13.48-137.8,18.88-165.37-37.81-44.68-91.81,45.75-159.82,86.71-184.79a145.25,145.25,0,0,0,23.26-17.75c99-11.83,192.51-54.29,275.86-107.49C1220.54,770.78,1297.25,865.26,1334,977.51Z"/></svg>