<svg id="Layer_1" data-name="Layer 1" xmlns="http://www.w3.org/2000/svg" viewBox="0 0 2000 2000"><defs><style>.cls-1{fill:#f5ab32;}.cls-2{fill:#1f647a;}.cls-3{fill:#8dc741;}.cls-4{fill:#ea3e28;}.cls-5{fill:#1f281a;}.cls-6{fill:#476533;}</style></defs><title>LogoFinal</title><path class="cls-1" d="M523.4,791.54c67.34,71,79.26,231.65-.32,260.14-36.68,8.73-42,5.46-42,5.46s43.82,55.37,127,81.57A270,270,0,0,0,646.21,1000c0-124.13-83.38-228.79-197.19-261C472.28,746.72,507.52,772.94,523.4,791.54Z"/><path class="cls-2" d="M238.69,885.11C249.43,856.53,285,814,337.82,827.58S409,919.33,409,919.33l-1.4-188.64a274.17,274.17,0,0,0-32.61-2c-129.26,0-237.4,90.42-264.63,211.47C113.46,938.44,176,903.5,238.69,885.11Z"/><path class="cls-3" d="M290.86,1021.57C277.8,942.57,255,914.27,210.14,919c-43.85,4.64-99.22,28.59-101.63,29.8-3.72,17.91-4.83,32.17-4.83,51.19,0,149.81,121.45,271.26,271.26,271.26a270.71,270.71,0,0,0,211.77-101.75C572.78,1175.83,317.58,1259.38,290.86,1021.57Z"/><path class="cls-4" d="M599.67,1174.72,709.48,1266s22.93-16.2,17.37-42.61Z"/><path class="cls-4" d="M599.67,1157.35l169.57,43.78s8.34-46.56-49.34-47.26Z"/><path class="cls-5" d="M911.13,930.62a48.3,48.3,0,0,1-13.36,17.24,60.08,60.08,0,0,1-20.44,10.65A88.86,88.86,0,0,1,851,962.19a117.56,117.56,0,0,1-39.81-7,105.4,105.4,0,0,1-35.51-21.42l23.08-27.65a115.79,115.79,0,0,0,25,15.73,66.79,66.79,0,0,0,28,5.83q12.18,0,18.9-4.44a14,14,0,0,0,6.72-12.3v-.51a15.43,15.43,0,0,0-1.4-6.72,14.24,14.24,0,0,0-5.34-5.45,56.2,56.2,0,0,0-10.94-5.07q-7-2.54-18.17-5.33a219.21,219.21,0,0,1-24.42-7.35,68.55,68.55,0,0,1-18.56-10,40.44,40.44,0,0,1-11.82-14.83q-4.2-8.88-4.2-22.07v-.5a51.52,51.52,0,0,1,4.53-21.94,50,50,0,0,1,12.73-16.86,57.12,57.12,0,0,1,19.56-10.91,78.71,78.71,0,0,1,25.06-3.8,106.07,106.07,0,0,1,35.88,5.83,104,104,0,0,1,30.06,16.74l-20.29,29.41a129.71,129.71,0,0,0-23.33-12.8,59.61,59.61,0,0,0-22.83-4.69q-11.4,0-17.12,4.43t-5.7,11v.5a16,16,0,0,0,1.65,7.48,14.9,14.9,0,0,0,6,5.71,56.18,56.18,0,0,0,11.82,4.82q7.5,2.28,19,5.32a183,183,0,0,1,24,8A67.05,67.05,0,0,1,901.29,872a40.76,40.76,0,0,1,10.94,14.59q3.67,8.37,3.69,20v.51A55,55,0,0,1,911.13,930.62Z"/><path class="cls-5" d="M1086.21,917.56a66.52,66.52,0,0,1-15.6,25,63.72,63.72,0,0,1-24.6,15,99.25,99.25,0,0,1-32.21,4.94q-35.76,0-56.3-19.78T937,883.57V782.13H976V882.56q0,21.81,10.14,32.84t28.15,11q18,0,28.15-10.65t10.14-31.95V782.13h39.06V882.3Q1091.66,902.6,1086.21,917.56Z"/><path class="cls-5" d="M1245.85,959.65l-86-112.85V959.65h-38.55V782.13h36l83.18,109.3V782.13h38.55V959.65Z"/><path class="cls-5" d="M1457.48,932.26a41.38,41.38,0,0,1-13.42,15.22,62.82,62.82,0,0,1-21,9.13,113.17,113.17,0,0,1-27.22,3h-84.3V782.13h82.27q27.33,0,42.91,12.43T1452.27,828v.51a43.57,43.57,0,0,1-1.89,13.44,42,42,0,0,1-5,10.53,40.36,40.36,0,0,1-7.3,8.24,49.42,49.42,0,0,1-9,6.09q15.4,5.83,24.24,15.85t8.83,27.76V911Q1462.16,923.14,1457.48,932.26Zm-43.75-97.63q0-8.88-6.6-13.57t-19-4.69h-38.54V853.9h36q12.93,0,20.54-4.44t7.61-14.32Zm9.89,71a16.74,16.74,0,0,0-6.85-14.08q-6.84-5.19-22.06-5.2h-45.14v39.06H1396q12.93,0,20.28-4.7t7.36-14.58Z"/><path class="cls-5" d="M1486.25,959.65V782.13h39.06V959.65Z"/><path class="cls-5" d="M1667.32,959.65l-38-56.8H1598.6v56.8h-39.06V782.13h81.15q31.71,0,49.33,15.47t17.62,43.11v.51q0,21.56-10.52,35.12a60.92,60.92,0,0,1-27.52,19.91l43.37,63.4Zm.76-116.91q0-12.68-8.11-19t-22.57-6.34h-38.8v51h39.56q14.46,0,22.19-6.85t7.73-18.26Z"/><path class="cls-5" d="M1889.47,905.89a82.64,82.64,0,0,1-19.4,28.15,91.83,91.83,0,0,1-29.92,18.77,103.37,103.37,0,0,1-38.17,6.84h-69.23V782.13H1802a105.22,105.22,0,0,1,38.17,6.72,90.38,90.38,0,0,1,29.92,18.64,82.94,82.94,0,0,1,19.4,28,88.08,88.08,0,0,1,6.85,34.87v.5A89,89,0,0,1,1889.47,905.89Zm-34-35a57.84,57.84,0,0,0-3.93-21.55,50.48,50.48,0,0,0-10.91-17,48.39,48.39,0,0,0-16.86-11,58.54,58.54,0,0,0-21.81-3.93H1771.8v107H1802a60.39,60.39,0,0,0,21.81-3.8,46.87,46.87,0,0,0,16.86-10.91A51.17,51.17,0,0,0,1851.56,893a56.64,56.64,0,0,0,3.93-21.56Z"/><path class="cls-6" d="M816.9,1049.18a16.42,16.42,0,0,0,5.31,6.7,38.62,38.62,0,0,0,10.62,5.5,127.28,127.28,0,0,0,17.39,4.68q21.43,4.76,31.59,13.2T892,1102.55a33.81,33.81,0,0,1-12.22,26.59,40.44,40.44,0,0,1-13.78,7.34,57.67,57.67,0,0,1-17.58,2.56,76.68,76.68,0,0,1-28.1-5A79.28,79.28,0,0,1,796,1118.72l9-10.62a75.52,75.52,0,0,0,20.32,13.64,58.47,58.47,0,0,0,23.62,4.49q13,0,20.79-6.06a19.24,19.24,0,0,0,7.78-16,21.32,21.32,0,0,0-1.47-8.16,16.44,16.44,0,0,0-5.14-6.51,36.36,36.36,0,0,0-10.19-5.32,129,129,0,0,0-16.61-4.58,133.36,133.36,0,0,1-19.18-5.51,47.57,47.57,0,0,1-13.49-7.51,27.64,27.64,0,0,1-7.89-10.27,34.49,34.49,0,0,1-2.57-13.94,31.87,31.87,0,0,1,3.11-14.12,32.93,32.93,0,0,1,8.79-11.1,42.6,42.6,0,0,1,13.37-7.33,51,51,0,0,1,16.84-2.66q14.1,0,24.63,3.88a74.81,74.81,0,0,1,20.42,11.68l-8.43,11.17a62.69,62.69,0,0,0-18-10.62,55,55,0,0,0-18.95-3.3,36,36,0,0,0-11.26,1.66,28.36,28.36,0,0,0-8.61,4.4,18.87,18.87,0,0,0-5.49,6.6,18.26,18.26,0,0,0-1.93,8.25A22,22,0,0,0,816.9,1049.18Z"/><path class="cls-6" d="M1025.31,1137.21h-14.47V1022.4h-43V1009h100.53v13.36h-43Z"/><path class="cls-6" d="M1242.14,1137.21l-37.17-49.8h-36.62v49.8h-14.47V1009H1209a62.23,62.23,0,0,1,19.13,2.75,43.06,43.06,0,0,1,14.56,7.78,34.59,34.59,0,0,1,9.33,12.09,36.56,36.56,0,0,1,3.3,15.67,38,38,0,0,1-2.56,14.38,32.84,32.84,0,0,1-7.23,11,40.93,40.93,0,0,1-11.08,7.79,51.59,51.59,0,0,1-13.92,4.39l39.37,52.33Zm-9.91-108.1q-8.62-6.7-24.23-6.71h-39.65v52.19h39.46a45.18,45.18,0,0,0,13.22-1.84,32.16,32.16,0,0,0,10.47-5.24,24.08,24.08,0,0,0,6.88-8.35,24.8,24.8,0,0,0,2.48-11.21Q1240.86,1035.81,1232.23,1029.11Z"/><path class="cls-6" d="M1463.91,1137.21h-15.56l-15-33.87h-69.76l-15.2,33.87h-14.83L1392,1008.12h13.55Zm-65.37-112.06-29.29,65.37h58.41Z"/><path class="cls-6" d="M1608.6,1008.67h11.9l35.16,107.12L1692.28,1009h15.2l-45.78,129.09h-12.27l-35.15-104-35.34,104h-12.09L1521.07,1009h15.75l36.62,106.75Z"/><path class="cls-6" d="M1800.9,1049.18a16.3,16.3,0,0,0,5.3,6.7,38.92,38.92,0,0,0,10.62,5.5,127.87,127.87,0,0,0,17.4,4.68q21.42,4.76,31.58,13.2t10.17,23.29a33.86,33.86,0,0,1-12.23,26.59,40.3,40.3,0,0,1-13.77,7.34,57.77,57.77,0,0,1-17.58,2.56,76.77,76.77,0,0,1-28.11-5,79.52,79.52,0,0,1-24.26-15.36l9-10.62a75.56,75.56,0,0,0,20.33,13.64,58.44,58.44,0,0,0,23.62,4.49q13,0,20.78-6.06a19.21,19.21,0,0,0,7.78-16,21.32,21.32,0,0,0-1.47-8.16,16.35,16.35,0,0,0-5.14-6.51,36.43,36.43,0,0,0-10.18-5.32,129.44,129.44,0,0,0-16.61-4.58,132.61,132.61,0,0,1-19.18-5.51,47.63,47.63,0,0,1-13.5-7.51,27.75,27.75,0,0,1-7.89-10.27,34.66,34.66,0,0,1-2.57-13.94,31.88,31.88,0,0,1,3.12-14.12,32.69,32.69,0,0,1,8.79-11.1,42.66,42.66,0,0,1,13.36-7.33,51.07,51.07,0,0,1,16.85-2.66q14.1,0,24.63,3.88a74.91,74.91,0,0,1,20.41,11.68l-8.42,11.17a62.6,62.6,0,0,0-18-10.62,55,55,0,0,0-19-3.3,36,36,0,0,0-11.26,1.66,28.48,28.48,0,0,0-8.61,4.4,18.87,18.87,0,0,0-5.49,6.6,18.25,18.25,0,0,0-1.92,8.25A22,22,0,0,0,1800.9,1049.18Z"/></svg>