<svg id="Layer_1" data-name="Layer 1" xmlns="http://www.w3.org/2000/svg" viewBox="0 0 2000 2000"><defs><style>.cls-1{fill:#8dc741;}.cls-2{fill:#010101;}</style></defs><title>Baterry juice</title><path class="cls-1" d="M611,291.64S601.09,627.89,807.89,608c125.62-10,203.75-62.83,157.79-157S806.36,265.6,611,291.64Z"/><path class="cls-1" d="M1101.46,899.25S1033.85,693,1184,657s201.45-71.23,202.21-19.91,6.13,339.31-216,303.31C1095.13,909.77,1101.46,899.25,1101.46,899.25Z"/><path class="cls-2" d="M994.81,1741.8a397.52,397.52,0,0,1-158.42-32.72l-239.71-104.2a909,909,0,0,0-272.53-71L245.43,1526a25.33,25.33,0,0,1-22.82-25.21V1253.85a25.33,25.33,0,0,1,5.08-15.2c5.88-7.87,147-192.18,362.48-144.23,121.21,26.94,218.81,77.35,279.33,114.89,43.94,27.26,95.45,41.65,149,41.65h239.71a115.12,115.12,0,0,1,97.94,54.66l206.45-237.86c40-53.45,105.51-86.18,174.07-86.18h15.43a25.34,25.34,0,0,1,23.19,35.53l-186.72,424.36c-40.83,92.81-124,162.92-222.34,187.52l-32.85,8.2-191.1,76.45A397.59,397.59,0,0,1,994.81,1741.8Zm-721.52-264,55.91,5.6a960.06,960.06,0,0,1,287.7,75l239.7,104.2a348.52,348.52,0,0,0,266.83,3.94l192.67-77.06a26.64,26.64,0,0,1,3.28-1l34.51-8.64c83.32-20.83,153.7-80.18,188.25-158.75L1712.45,1034A169.34,169.34,0,0,0,1602,1099.56l-228.7,263.58c0,1,0,2,0,3a115.27,115.27,0,0,1-115.14,115.13H923.74A403.4,403.4,0,0,0,796,1502l-9.3-23.63-7.87-24.08,1.29-.42a453.64,453.64,0,0,1,143.58-23.27h334.44a64.47,64.47,0,1,0,0-128.93H1018.47c-63,0-123.7-17-175.66-49.27-57.17-35.47-149.35-83.06-263.6-108.48-163.21-36.2-280.65,89.06-305.9,118.94v215Z"/><path class="cls-2" d="M1220.45,975.85c-39,0-82.67-12-130.77-36.08a25.48,25.48,0,0,1-12.52-14.14c-2-5.49-47.23-135.72,24.72-232,52.29-70,150.61-101.54,292.39-93.64a25.29,25.29,0,0,1,23.87,24c.51,10.06,11,247.53-110.13,326.6C1282.26,967.44,1253,975.85,1220.45,975.85ZM1122,899.1c66.55,31.22,119.76,34.27,158.32,9.09,71.8-46.89,87.33-186.11,87.71-258.57-111.09-2.71-186.73,22.33-225.56,74.3C1096.25,785.81,1114.21,870.94,1122,899.1Z"/><path class="cls-2" d="M833,643.88c-44.93,0-96.75-9.62-142-42.75C614.27,544.91,579,437.88,586.17,283A25.35,25.35,0,0,1,610,258.9c11-.63,270.37-14.47,357.66,116.55,40.65,61,37.31,140.87-9.88,237.47a25.26,25.26,0,0,1-14,12.65C940.35,626.83,892.78,643.88,833,643.88ZM935,601.8h0Zm-299-293c-2.19,124,26.33,208.59,84.88,251.5C791,611.61,886.75,589.78,916.85,581c34.43-74.72,37.34-134.37,8.64-177.46C872.14,323.47,715.69,307.81,636,308.75Z"/><path class="cls-2" d="M1030.84,1292.71c-.8,0-1.6,0-2.41-.11a25.34,25.34,0,0,1-22.92-26.5q2.25-44.71,7.51-84.87c10.54-179.3,5.11-596.84-258.89-712.36a25.33,25.33,0,1,1,20.31-46.42C930,490.52,1027.88,660,1057.41,912.5c2.66,22.63,4.64,44.94,6.12,66.67,69.53-175.69,175.89-237.77,182.23-241.32a25.33,25.33,0,0,1,24.9,44.12c-2.68,1.56-165.78,99.45-206.72,401.31-3.12,51.63-7.61,84.56-8,87.57A25.34,25.34,0,0,1,1030.84,1292.71Z"/></svg>